# xmcd CD database file
# Copyright (C) 1995-1998 Ti Kan
#
# Track frame offsets:
#	150
#	17214
#	36565
#	50957
#	70336
#	87353
#	102498
#	118087
#	136235
#	157855
#	177812
#	193520
#	208439
#	226651
#	240738
#	258043
#
# Disc length: 3618 seconds
#
# Revision: 1
# Processed by: cddbd v1.4b41PL1 Copyright (c) Steve Scherf et al.
# Submitted via: CDex 1.30
#
DISCID=e30e2010
DTITLE=CDX - Volume 264 April 2001
DYEAR=2001
DGENRE=Country
TTITLE0=Jo Dee Messina - Downtime
TTITLE1=Lonestar - I'm Already There
TTITLE2=Dwight Yoakum - I Want You Bad
TTITLE3=Mark Wills - Loving Every Minute
TTITLE4=Tim Rushlow - She Misses Him
TTITLE5=The Clark Family Experience - Standin Still
TTITLE6=Diamond Rio - Sweet Summer
TTITLE7=Meredith Edwards - The Bird Song
TTITLE8=Ricky Van Shelton - The Decision
TTITLE9=Jole and The Wanted - (When I Look Into Your Eyes) I'm Beautiful
TTITLE10=Rascal Flatts - While You Loved Me
TTITLE11=Alabama - Will You Marry Me
TTITLE12=Hayseed Dixie - Back In Black
TTITLE13=Megan Lee - Don't Know Nothin At All
TTITLE14=Nicole Davidson - Kinda, Sorta, Maybe
TTITLE15=Tammy Lee w Morgan Englund - Steppin Stones
EXTD=\nYEAR: 2001  ID3G:   2
EXTT0=
EXTT1=
EXTT2=
EXTT3=
EXTT4=
EXTT5=
EXTT6=
EXTT7=
EXTT8=
EXTT9=
EXTT10=
EXTT11=
EXTT12=
EXTT13=
EXTT14=
EXTT15=
PLAYORDER=
